<svg id="layer" xmlns="http://www.w3.org/2000/svg" viewBox="0 0 100 60" width="100" height="60">
  <g>
    <path d="m16.12,44.63c0,.65-.51,1.08-1.24,1.08h-1.59v-3.76h1.3c.65,0,1.16.43,1.16,1.01,0,.29-.14.51-.29.73.36.14.65.51.65.94Zm-2.24-2.09v1.01h.65c.36,0,.59-.22.59-.51s-.22-.51-.59-.51h-.65Zm1.66,2.09c0-.36-.22-.59-.65-.59h-1.01v1.16h.94c.43.01.73-.21.73-.57Z" fill="#616263"/>
    <path d="m19.45,42.53h-1.87v.94h1.38v.51h-1.38v1.16h1.95v.51h-2.54v-3.76h2.46v.65Z" fill="#616263"/>
    <path d="m22.78,42.6l-.43.29c-.22-.29-.43-.43-.79-.43-.29,0-.59.14-.59.43s.22.36.51.51l.43.22c.59.29.87.59.87,1.08,0,.65-.51,1.08-1.24,1.08-.65,0-1.16-.29-1.44-.79l.43-.29c.22.29.51.59,1.01.59.36,0,.65-.22.65-.51s-.22-.43-.59-.59l-.43-.22c-.51-.22-.87-.51-.87-1.01,0-.65.51-1.01,1.16-1.01.66-.05,1.1.23,1.31.66Z" fill="#616263"/>
    <path d="m26.55,42.53h-1.3v3.25h-.59v-3.25h-1.3v-.51h3.11v.51h.08Z" fill="#616263"/>
    <path d="m33.77,41.95l-1.44,3.84h-.22l-1.16-2.68-1.16,2.68h-.14l-1.44-3.84h.65l.94,2.54,1.08-2.6h.22l1.08,2.6.94-2.54h.66Z" fill="#616263"/>
    <path d="m36.45,45.13h-1.66l-.29.65h-.65l1.66-3.84h.22l1.66,3.84h-.65l-.3-.65Zm-.87-2.09l-.65,1.59h1.24l-.59-1.59Z" fill="#616263"/>
    <path d="m40.51,42.53h-1.3v3.25h-.59v-3.25h-1.3v-.51h3.19v.51Z" fill="#616263"/>
    <path d="m43.69,42.53h-1.89v.94h1.38v.51h-1.38v1.16h1.95v.51h-2.54v-3.76h2.46v.65h.01Z" fill="#616263"/>
    <path d="m47.02,45.72l-1.08-1.44h-.73v1.44h-.59v-3.76h1.38c.79,0,1.3.43,1.3,1.16,0,.51-.29.87-.73,1.08l1.16,1.52s-.72,0-.72,0Zm-1.74-1.96h.73c.43,0,.65-.29.65-.65s-.22-.65-.65-.65h-.73v1.3Z" fill="#616263"/>
    <path d="m52.66,42.53h-1.3v3.25h-.59v-3.25h-1.3v-.51h3.11v.51h.08Z" fill="#616263"/>
    <path d="m55.91,42.53h-1.89v.94h1.38v.51h-1.38v1.16h1.95v.51h-2.54v-3.76h2.46v.65h.01Z" fill="#616263"/>
    <path d="m60.11,42.74l-.43.36c-.29-.43-.65-.65-1.16-.65-.79,0-1.38.59-1.38,1.38s.59,1.38,1.38,1.38c.51,0,.87-.22,1.16-.65l.43.36c-.29.51-.94.87-1.59.87-1.08,0-1.95-.87-1.95-1.95s.87-1.95,1.95-1.95c.73-.01,1.3.34,1.59.85Z" fill="#616263"/>
    <path d="m64.09,45.72h-.59v-1.74h-1.89v1.74h-.59v-3.76h.59v1.52h1.89v-1.52h.59v3.76Z" fill="#616263"/>
    <path d="m68.37,41.95v3.84h-.22l-2.31-2.6v2.54h-.59v-3.84h.22l2.31,2.6v-2.54h.59Z" fill="#616263"/>
    <path d="m73.22,43.83c0,1.08-.87,1.95-1.95,1.95s-1.95-.87-1.95-1.95.87-1.95,1.95-1.95,1.95.86,1.95,1.95Zm-3.33,0c0,.79.59,1.38,1.38,1.38s1.38-.59,1.38-1.38-.59-1.38-1.38-1.38-1.38.59-1.38,1.38Z" fill="#616263"/>
    <path d="m74.74,45.21h1.74v.51h-2.31v-3.76h.59s-.01,3.25-.01,3.25Z" fill="#616263"/>
    <path d="m80.89,43.83c0,1.08-.87,1.95-1.95,1.95s-1.95-.87-1.95-1.95.87-1.95,1.95-1.95,1.95.86,1.95,1.95Zm-3.33,0c0,.79.59,1.38,1.38,1.38s1.38-.59,1.38-1.38-.59-1.38-1.38-1.38-1.38.59-1.38,1.38Z" fill="#616263"/>
    <path d="m85.09,42.68l-.43.36c-.29-.36-.65-.59-1.16-.59-.79,0-1.38.59-1.38,1.38s.59,1.38,1.38,1.38c.51,0,.87-.22,1.16-.59v-.43h-1.16v-.51h1.74v1.08c-.29.59-1.01,1.01-1.74,1.01-1.08,0-1.95-.87-1.95-1.95s.87-1.95,1.95-1.95c.72,0,1.22.29,1.59.79Z" fill="#616263"/>
    <path d="m87.69,44.2v1.52h-.59v-1.52l-1.3-2.25h.65l.94,1.66.94-1.66h.65l-1.29,2.25Z" fill="#616263"/>
  </g>
  <g>
    <polygon points="90 20.46 78.92 20.46 76.91 26.18 80.08 26.18 80.08 38.26 86.59 38.26 86.59 26.18 90 26.18 90 20.46" fill="#616263"/>
    <polygon points="71.55 20.46 68.8 28.27 66.7 20.46 61.85 20.46 59.75 28.27 57.01 20.46 50.41 20.46 56.64 38.26 62 38.26 64.31 29.57 66.56 38.26 71.98 38.26 78.13 20.46 71.55 20.46" fill="#616263"/>
    <path d="m48.61,29.14c1.3-.79,2.17-2.31,2.17-3.98,0-2.6-2.09-4.71-4.71-4.71h-9.7v17.8h10.63c2.6,0,4.71-2.09,4.71-4.71.08-2.02-1.3-3.76-3.11-4.41Zm-6.8-4.26h1.74c.51,0,.94.51.94,1.24,0,.65-.43,1.24-.94,1.24h-1.74v-2.47h0Zm2.68,9.48h-2.6v-2.6h2.6c.59,0,1.01.59,1.01,1.3s-.43,1.3-1.01,1.3Z" fill="#616263"/>
    <path d="m28.13,22.92h0l-12.58-7.09v2.25l-3.55-1.89v14.18c0,4.63,3.69,8.32,8.32,8.32.94,0,1.81-.14,2.68-.43.36.08.73.08,1.08.08,4.56,0,8.25-3.69,8.25-8.26,0-3.12-1.66-5.8-4.2-7.18Zm-7.81,14.55c-3.91,0-7.09-3.19-7.09-7.09v-12.08l3.9,2.16v9.92c0,1.74,1.38,3.11,3.11,3.11s3.11-1.38,3.11-3.11c0-1.44-.94-2.6-2.25-2.96v-3.98c3.47.43,6.15,3.41,6.15,7.02.17,3.82-3.02,7.01-6.93,7.01Z" fill="#616263"/>
  </g>
</svg>