<?xml version="1.0" encoding="UTF-8"?>
<svg id="layer" xmlns="http://www.w3.org/2000/svg" viewBox="0 0 100 60" width="100" height="60">
  <path d="m48.32,43.99s0,.04.03.04c.08.1.04.25.08.35,0,0,.03.01.03,0-.03.07-.07.12-.13.18.04.1-.1.22-.14.33-.07-.04-.08.04-.1.04h-.03s-.01,0-.01,0c.04-.14-.08-.33-.03-.43-.14-.08,0-.22-.13-.33.1-.04.1-.35.31-.25l.13.07Z" fill="#636363"/>
  <path d="m39.95,46.02v.04s.01-.01,0-.04" fill="#636363"/>
  <path d="m71.55,42.96c.03.26,0,.47.09.68-.03.54-.05,1.15-.05,1.7l.07-.03c.61-.76,1.15-1.62,1.96-2.21.09,0,.16.05.24.12.14.17-.05.35-.08.52l-.44.35c-.12.21-.35.3-.42.55-.54.5-.99,1.11-1.39,1.71.03.64-.03,1.23.12,1.86.17-.07.33-.24.44-.41,1.18-1.18,1.88-2.65,2.78-4.03.07-.18.18-.42.38-.54.24-.09.21.21.24.33-.18.47-.38.94-.73,1.35-.82,1.23-1.61,2.56-2.68,3.73-.26.14-.42.52-.75.47-.33-.3-.22-.77-.31-1.2,0-.26-.07-.5-.03-.76l-.05-.03c-.3.5-.64.85-1.06,1.24-.18.3-.42.64-.76.88-.07.07-.16,0-.24-.04-.26-.59-.12-1.29-.2-1.96.08-.77.09-1.67.12-2.41,0-.38-.12-.73-.12-1.12.17-.14.14-.44.41-.41.26.03.24.26.29.44,0,.29.09.64.03.94,0,.82-.12,1.58-.14,2.38-.05.38.05.82.05,1.2.24-.18.3-.5.56-.64.3-.3.56-.71.85-1.03-.07-.24.21-.12.2-.33.09-.05.05-.18.07-.24l.05-1.14.05-.82c-.2-.16.04-.35-.05-.54l-.05-.09c.03-.29.03-.61.26-.76.18-.08.26.14.3.26" fill="#636363"/>
  <path d="m59.89,42.99c-.07.44-.56.68-.68,1.11-.29.42-.5.8-.63,1.27l.03.12c.61-.12,1.16-.04,1.74-.21.52-.03,1.2-.27,1.76-.18l.07.12c.14-.2.17-.43.21-.61h-.04c.21-.42.33-.99.61-1.39.05-.07.17-.05.24-.03-.08.07.05.09.05.17-.03.38-.26.65-.35,1.01-.16.42-.18.9-.35,1.29-.05.12.09.29-.09.35l.05.05c-.14.5-.33,1.03-.33,1.58-.05.03-.07.09-.05.14l.03.03c.47-.39.73-1.03,1.24-1.36.17,0,.12.14.18.21.08.56-.18,1.14-.21,1.7.07.14.09.31.03.44-.12.07-.18.14-.35.14-.08-.16-.17-.21-.17-.38-.03-.33.12-.65.14-.97l-.05-.09c.05,0,.08-.04.08-.07v-.05c-.38.44-.88.98-1.23,1.46-.05-.05-.21.14-.24-.05.05-.07-.07-.05-.05-.12.05-.18.09-.42.08-.59h-.05c.14-.07.07-.3.17-.44.07-.76.35-1.61.52-2.33,0-.03,0-.08-.05-.08h-.03c.03.2-.03.24-.18.26-.09.14-.33-.03-.44.17-.56.17-1.12.09-1.67.33-.17-.09-.47.03-.71.08-.14-.03-.26,0-.41.03-.14-.03-.35,0-.42.14-.12.43-.17.88-.14,1.35l.08.03c-.14.09.07.14-.03.24.03.24.21.17.29.35.09-.03.21.09.33.12.67.07,1.32-.21,1.75-.64.12-.03-.05.33.17.24-.21.63-.99.85-1.58.99-.38.09-.68-.09-.99-.21.03-.12-.09-.03-.09-.12-.52-.42-.33-1.18-.33-1.76.12-.17.09-.38.14-.56-.54.03-1.15.2-1.73.2-.05.12-.16,0-.21.09v-.03c-.21.03-.43.12-.61-.05-.05-.14.14-.24.12-.38.18-.17.5-.14.73-.21.59-.09,1.29-.14,1.88-.29.12-.29.3-.59.35-.89.12,0,0-.14.09-.16l.82-1.37-.05-.05c.18-.03.26-.33.47-.27.05-.01-.03.08.09.13" fill="#636363"/>
  <path d="m77.39,45.85c-.05.12.14.21.08.38l.07.03c0,.14-.03.33,0,.5.18-.07.35-.21.52-.33.29-.2.65-.24.97-.35.07.09.24.09.35.12.08.14,0,.26-.09.38-.09,0-.09.09-.12.12-.52.17-1.15.26-1.49.8.09,0-.03.09.05.14-.14.16-.03.44-.14.64.03.16.09.29.03.44l-.2.24c-.26.07-.33-.24-.33-.41.05-.21-.08-.38,0-.59h-.08c.17-.13-.03-.37.05-.54l-.03-.21h-.03c.03-.33-.05-.82-.21-1.15,0-.09.08-.21.05-.33.09-.09.16-.24.3-.29.09.13.27.2.24.41" fill="#636363"/>
  <path d="m48.42,45.93c-.07.07,0,.17.03.21-.03.73-.17,1.44-.26,2.12.14.07,0,.18.03.27l-.21.14-.03-.04-.07.12c-.26-.09-.14-.38-.21-.56.03-.05,0-.14,0-.2.12-.5.14-.88.21-1.41-.09-.05.03-.16-.05-.24.03-.17.03-.38.14-.52-.03-.05.03-.14.09-.14.12.05.24.13.33.25" fill="#636363"/>
  <path d="m42.91,45.97c.12.03.14.09.14.2-.05.26-.33.33-.56.35l-.09-.03c.12-.21.3-.41.51-.52m2.69.08c.05-.12.17-.09.24-.14.07.03.17.03.21.09-.18.35-.56.54-.89.56.07-.21.27-.44.44-.51m1.62,1.36l-.88.39c-.35.05-.73.35-1.11.29-.26-.07-.24-.24-.33-.43.05-.24-.09-.5.09-.64.07.12.14.29.33.24.33-.18.76-.29.94-.65l.03.03c.14-.24.35-.52.26-.85-.14-.17-.09-.38-.33-.5.03-.03.08-.05,0-.08-.03-.01-.03.03-.07.03-.21-.17-.54.03-.73.12v.05c-.09.03-.21.12-.3.21-.29.38-.58.73-.61,1.2-.21.21.09.82-.42.8-.24.14-.54.18-.82.29-.27.09-.61.14-.89.03-.29-.16-.26-.56-.24-.82.24.05.52.07.71-.07.41-.21.8-.64.73-1.15.05-.09-.14-.03-.05-.12-.12-.18-.14-.52-.42-.55-.29,0-.44.2-.65.33l-.03-.03-.05.05s0,.03.03.04c-.07.08-.14.18-.21.21-.09.26-.35.44-.42.71h-.56c-.12-.39.12-.85.14-1.24.07-.13.12-.31.16-.41-.03-.03.07-.09.01-.13l.05-.03c.21-.68.42-1.2.71-1.88l.07-.05c-.04-.14.14-.27.21-.41.07.14-.17.41-.09.56-.07.14,0,.21-.03.33.09.05.12.03.21-.05.14-.38.38-.71.59-1.06-.05-.07.03-.12.07-.17,0-.21.21-.41.18-.64-.03-.14-.12-.24-.21-.33-.41.04-.64.38-.94.61-.03.12-.12.17-.17.29,0,.09-.12-.03-.09.09-.18.33-.26.71-.47,1.03-.05.12-.09.18-.07.29-.09.04-.03.17-.17.18.12.14-.17.26-.07.42-.17.33-.17.64-.29.99-.09.41-.12.77-.24,1.15-.07.21-.03.33-.14.54-.26,0-.52.07-.77.05v-.07l-.05.09c-.03-.12-.03-.29.08-.29,0-.04,0-.3.07-.47-.01.01,0,.04.01.05l.04-.13h-.05c.05-.14-.03-.38.12-.44-.01.03-.01.04-.01.07l.04-.16-.08.07c-.04-.12-.04-.3.08-.38-.12-.18.04-.24.07-.42.01,0,.01.01.01.03l.03-.14-.04.08c.07-.09-.12-.18.04-.26-.03-.14.03-.31.08-.44.03.05.03.09.03.12.09-.05,0-.12.05-.18l-.05.08s-.03-.03-.03-.05c-.03-.05.04-.14.07-.09,0-.03.03-.03.03-.05l-.07.05c0-.07.03-.17.07-.21t.01.03l.07-.13c0-.12.09-.35.03-.44.03-.03.05-.07.08-.03.12-.18.12-.47.26-.59-.03.29-.09.68.07.85.17-.17.35-.3.33-.61.03-.12.17-.09.05-.21,0,0,.03-.05.04-.03l-.04-.12c.04-.09-.03-.3.03-.38l-.31-.52c-.29-.09-.35.27-.51.39-.03.12-.12.24-.17.35l-.05-.03c.05.14-.07.31-.07.43-.03.16-.17.33-.12.5l-.05.03c.03.21-.07.38-.12.56h-.05c.07.09,0,.18-.03.29.03.16-.03.3-.09.47h.03c.07.21-.14.35-.05.56-.04.61-.21,1.23-.3,1.79-.38.14-.9-.03-1.29.21-.09.09-.18.21-.14.35.26.33.71.12,1.06.14.07.12.16-.08.21.07l-.07.08c.09.17-.09.44-.12.64-.01.52-.16.99-.29,1.49-.04.41-.27.71-.27,1.11-.18.44-.29.97-.47,1.41-.09.03-.24-.03-.26.09-.05.24.03.47.03.68,0,.04.09.12.05.14-.03.09.04.18.09.24.14.05.26-.05.31-.14.31-.71.41-1.39.65-2.14l-.05-.07c.14-.2.16-.43.24-.64.03-.05-.03-.03-.04-.05.01-.05,0-.14.09-.14.07-.24.14-.43.12-.67.17-.12,0-.3.12-.44,0,.03.03.03.03.05,0-.09.07-.24,0-.29l.07-.05c-.01-.07.14-.18,0-.24.05-.09,0-.26.09-.33v.03c0-.08.09-.17,0-.21.14-.17.12-.41.21-.61.29,0,.55-.08.8-.05-.38,1.86-.33,3.79-1.12,5.56-.12-.07,0-.18-.17-.24l.05-.05c-.07.07-.09-.03-.12-.07l.08-.03c-.05-.14-.21-.05-.17-.21-.09.03-.14.12-.17.17.03.29,0,.64.26.82l-.03.03c.07.14.21.3.38.33l.05-.08c.12.08.09-.12.21-.12.14-.59.47-1.15.54-1.79.09-.5.17-.9.24-1.41.05-.07.08-.18.05-.29.03-.35.04-.68.14-.97.09-.16-.21-.33.05-.42.05-.07.05-.14,0-.21.09-.21.07-.44.05-.65h.09c0-.05.03-.09.05-.14-.17-.21.12-.26.21-.39.12.07.29-.05.42-.05-.07.21.03.43-.04.61.12.38.35.8.8.88.54.09,1.15-.12,1.65-.3.14-.07.29-.17.44-.18-.03.21.21.33.29.5.73.33,1.53-.18,2.21-.44.09-.05.07-.24.18-.17,0-.21.26-.08.26-.29-.22-.01.07-.34-.22-.3" fill="#636363"/>
  <path d="m37.03,47.98c-.14.18-.41.24-.56.17-.03-.07-.18,0-.18-.17-.29-.03-.17-.42-.17-.64,0-.05.03-.07.05-.09l.03.03c.14-.42.29-1.01.71-1.15.21-.05.21.21.3.3.16.51.18,1.12-.17,1.56m.59-1.58c-.2-.38-.26-.85-.68-1.02-.12-.03-.21.12-.33.07-.56.35-.56,1.11-1.11,1.48-.33.54-.52.97-1.14,1.32-.33.16-.68.16-1.01.12-.35.03-.64-.18-.92-.38-.17-.26-.18-.73-.05-1.03-.03-.17.12-.35.14-.5.03-.05.08-.14.14-.14l-.03-.08c.09-.07.14-.24.24-.3.05-.21.26-.21.29-.35.17-.03.18-.12.35-.17.12.18-.14.42-.17.61.07.09.03.24,0,.33.12.33-.09.89.35,1.05.2-.09.21-.31.31-.52.17-.04.09-.24.18-.35.14-.65.03-1.39-.56-1.83-.59.2-1.11.64-1.41,1.2h-.08l.05.05c-.12.27-.35.54-.3.8.03.12-.12.26-.03.35-.14.03-.03.24-.05.38.09.3.18.76.44.99.42.47,1.08.56,1.67.54v-.03c.38-.03.73-.21.99-.44.03.03.03.05.05.05v-.08c.24-.14.35-.38.56-.54l.29.41c.24.17.3.24.56.38.33.14.68-.03.92-.21.56-.6.48-1.46.3-2.14" fill="#636363"/>
  <path d="m75.81,47.46c-.29.18-.56.44-.92.5.05.1-.09.1-.12.14-.12-.09-.17.14-.33.07-.07.05-.24-.07-.33-.03-.12-.03-.17-.17-.18-.26-.05-.43.21-.76.5-1.03.16-.17.35-.21.56-.29l-.03-.03c.05-.03.03.09.09,0l.14-.04v.03l.14-.04v.03c.09-.07.26-.05.41-.03.09.03.12.14.24.17.05.29.05.55-.18.81m.71-.43c.03-.24.05-.59-.08-.78l.03-.03c-.04-.09-.24-.27-.38-.39-.07-.05-.21,0-.27-.09-.18,0-.42,0-.61.04-.82.12-1.36.92-1.62,1.63-.07.17-.03.39-.14.56.14.08.03.24.07.38.12.21.33.38.54.47.09-.07.21.07.29.05.94-.12,1.86-.85,2.22-1.76l-.03-.08Z" fill="#636363"/>
  <path d="m53.77,47.2c0,.18-.07.42-.26.54-.16.12-.42.09-.61.03-.21-.14-.38-.43-.3-.71.09-.3.47-.44.77-.5.17.03.35.03.5.2.09.13-.07.29-.09.44m.73-.07c-.05-.47-.14-.9-.56-1.2-.38-.24-.76.03-1.15.12l-.07.07c-.24.07-.35.33-.5.52-.17-.03-.09.18-.21.21l-.12.41c0,.21-.31.26-.47.35-.41-.14-.2-.65-.29-.97,0-.12-.09-.17-.09-.29h-.24c-.14.05-.05.17-.14.24-.12.44-.42.97-.85,1.24-.07-.07-.09-.18-.09-.27h.05c-.18-.41-.03-.8-.14-1.27.12-.12.03-.31,0-.44-.03-.09-.18-.24-.29-.24-.24.14-.17.39-.17.61-.07.14-.03.29-.03.43-.24.17.16.3-.03.5.07.09.04.3.04.44-.03.12.08.29.03.37.18.03.03.31.18.38-.07.09.09.09.07.16.12.14.29,0,.42.03.03-.12.21-.16.21-.21,0-.07.03-.12.09-.12l.35-.44c.3-.21.21.29.41.38.33.18.71.07,1.01-.14.03.03.03.08.03.09.18.03.29.31.47.33.12.05.29.09.33.14l.8-.03c.05.26.05.41.05.64.07.05,0,.09,0,.14.09.26-.09.61,0,.88-.12.27-.07.59-.21.85.14.14-.14.21-.07.41-.29.44-.33.97-.8,1.29-.44.33-.99.24-1.46.14-.41-.14-.94-.04-1.2-.42l.09-.05c-.24-.14-.52.03-.76.05-.21.17-.12.29-.09.47.04.12.17.2.29.29.59.14,1.23.42,1.88.38.26.12.78.03,1.08-.08.17-.05.3-.26.47-.29.08-.17.26-.26.29-.42.26-.03.14-.33.35-.42.09-.35.3-.73.41-1.14-.03-.03-.03-.05.03-.07-.09-.12.05-.18.07-.29-.14-.09.05-.07.08-.21-.08-.14.03-.35-.05-.44.03-.04.12-.14.03-.18.07-.07.03-.18.09-.29.03-.47-.09-1.06.03-1.58-.12-.12.17-.12.09-.24.3-.21.25-.56.27-.82" fill="#636363"/>
  <path d="m83.86,47.86c-.41.18-.85.24-1.24.05-.12.07-.09-.12-.18-.09-.17-.26.04-.59.21-.82l.35-.21c.29.03.71-.09.82.21-.05.09.03.29-.03.41.03.14.14.29.07.46m-2.88-2.99c.08-.17.08-.35.21-.44,0-.04-.05,0-.05-.04.18-.42.41-.9.78-1.2.08.21,0,.43-.03.64l-.09.05c.2.26-.09.59-.12.88-.2.43-.44.8-.8,1.06h-.07c0-.29.12-.59.16-.94m4.95-3.32l-.12-.24c-.18-.24-.26.14-.38.17-.12.44-.47.94-.59,1.46.03.07-.17.09-.08.17-.12.31-.18.67-.33.94l.05.03c-.14.41-.33.82-.38,1.24-.09.26-.14.54-.24.82-.38-.12-.94-.12-1.27.12-.18.26-.47.52-.59.88l.03.05c-.09.09-.05.24-.08.33l-.07-.07c-.3.12-.52.54-.88.51-.05-.07-.24-.09-.12-.21l-.12-.05s.05-.05.05-.07c-.14-.12-.07-.26-.14-.38-.05-.07.04-.09.09-.09-.03,0-.12,0-.09-.05,0-.05.03,0,.04,0-.12-.07,0-.18-.04-.33.03-.26.35-.3.43-.55.33-.17.47-.52.68-.77-.07-.14.2-.29.17-.41l.05-.07c.33-.8.41-1.65.26-2.43-.09-.14-.26-.41-.44-.21v.05c-1.03,1.01-1.46,2.56-1.65,3.86-.07,0-.09.09-.14.03-.07-.03-.18-.03-.26.05-.05.16-.2.35-.09.54.18.03.26.12.42.14-.05.33.17.59.17.89.04.14.21.35.2.5.07.07.26.17.3.26.09.03.18.12.26,0,.21-.09.3-.31.54-.41.12.05.3,0,.41.14.2.05.29.24.47.24.18.12.41.17.59.12.38.03.73-.12,1.08-.3.05.09.12.26.24.26.03.14.17.14.26.26.24.03.54.05.8-.12-.03,0-.07,0-.07-.03l.05-.03c-.03-.05-.09.03-.08-.05.03-.03.08-.12.14-.07.03-.12.29-.14.24-.3-.07-.03-.04-.09,0-.14-.3,0-.56.17-.85.07-.05-.14-.26-.29-.21-.5-.04-.04.1-.07,0-.12.1-.35.14-.82-.09-1.11-.12.05,0-.12-.12-.09.07-.59.18-1.25.38-1.86.05-.21.21-.42.18-.61.17-.55.3-1.03.56-1.5l-.03-.05c.16-.17.12-.38.24-.52.12-.13.05-.26.14-.41" fill="#636363"/>
  <path d="m64.62,47.13c.18-.17.44-.31.71-.31l.03.09c-.14.31-.44.31-.71.41-.04-.07-.04-.12-.03-.18m1.88.81c-.64.03-1.22.35-1.91.33-.07,0-.14-.04-.17-.04-.14-.08-.35-.14-.3-.33-.03.03-.03.04-.05.04.03-.04-.03-.16.07-.18.17.07.29.18.47.18.44,0,.76-.42,1.08-.71.14-.24.17-.56.07-.82l-.14-.17c-.8-.17-1.5.61-1.91,1.23-.21.35-.18.85.08,1.18.38.33,1.08.24,1.62.12l.08-.09c.38-.04.73-.2,1.01-.44.04-.12,0-.16.01-.29" fill="#636363"/>
  <path d="m89.14,37.07v-14.27c0-1.67-1.31-2.96-2.9-2.96H14.04c-1.62,0-2.9,1.34-2.9,2.96v14.27c0,1.67,1.29,2.96,2.87,2.96h72.21c1.62.01,2.92-1.29,2.92-2.96" fill="#636363"/>
  <path d="m83.48,29.96c0,.77-.22,1.4-.67,1.9-.45.51-1.01.76-1.7.76s-1.27-.25-1.71-.74c-.45-.51-.65-1.13-.65-1.92s.22-1.4.67-1.9c.45-.51,1.01-.76,1.7-.76s1.24.25,1.7.76c.45.52.67,1.15.67,1.9m1.06,3.36c.46-.45.8-.97,1.04-1.53s.36-1.18.36-1.83-.12-1.27-.36-1.83c-.24-.58-.6-1.09-1.04-1.53-.46-.45-.98-.79-1.58-1.03-.6-.24-1.22-.36-1.86-.36s-1.27.12-1.86.36c-.6.24-1.12.58-1.56,1.03-.46.45-.82.97-1.07,1.53-.24.57-.36,1.18-.36,1.83s.12,1.25.36,1.83c.24.58.6,1.09,1.07,1.53.45.45.97.79,1.56,1.04.6.24,1.21.36,1.86.36s1.27-.12,1.86-.36,1.12-.58,1.58-1.04m-11.1,1.16h2.5v-9.08h-2.5v9.08Zm-6.01-9.08v9.08h5.55v-2.11h-3.08v-6.95h-2.47Zm-3.2,9.08h2.5v-9.08h-2.5v9.08Zm-4.46-2.66c-.45-.48-.67-1.09-.67-1.82,0-.79.22-1.41.65-1.9.45-.49,1.01-.73,1.73-.73.39,0,.74.09,1.09.27.33.18.67.45,1.01.83v-2.71c-.39-.19-.79-.33-1.18-.43-.39-.09-.77-.15-1.18-.15-.65,0-1.27.1-1.8.33s-1.03.55-1.46,1c-.46.46-.79.98-1.03,1.55-.22.57-.34,1.19-.34,1.89,0,.86.18,1.64.54,2.34.36.68.86,1.27,1.55,1.71.36.24.74.42,1.16.54s.88.18,1.37.18c.39,0,.79-.04,1.18-.15.39-.09.79-.24,1.18-.43v-2.71c-.34.39-.68.65-1.01.83-.34.18-.7.27-1.09.27-.67.01-1.25-.22-1.7-.7m-5.91-6.41v5.58l-3.32-5.58h-2.49v9.08h2.38v-5.6l3.3,5.6h2.47v-9.08h-2.35Zm-17.58,3.17c0,.39-.12.67-.37.85-.24.18-.64.27-1.16.27h-.46v-2.38h.49c.55,0,.92.09,1.16.28.24.19.34.52.34.98m5.74,2.52l.91-2.99c.06-.18.1-.37.16-.58s.1-.42.16-.64c.07.33.15.58.19.77.04.21.09.34.12.45l.92,2.99h-2.47Zm-3.26,2.8l-2.07-3.07c.65-.15,1.16-.43,1.5-.88.34-.43.52-1.01.52-1.71,0-.46-.09-.89-.27-1.27-.18-.39-.43-.7-.76-.95-.28-.22-.64-.37-1.03-.46-.4-.09-1.1-.13-2.11-.13h-2.59v9.08h2.32v-3.56l2.08,3.56h4.66l.48-1.62h3.51l.46,1.62h2.46l-3.14-9.08h-3.1l-2.93,8.47Zm-18.75-6.94v5.98c0,.97-.79,1.76-1.76,1.76s-1.74-.79-1.74-1.76c0-.4.13-.79.37-1.09l2.84-3.63c.42-.52.33-1.29-.18-1.73l-3.39-3.41c-.49-.48-1.27-.48-1.76,0-.48.48-.48,1.28,0,1.76l2.72,2.72-2.19,2.77c-.57.73-.89,1.68-.89,2.6,0,2.34,1.9,4.23,4.23,4.23s4.23-1.9,4.23-4.23v-5.98c0-.97.79-1.74,1.74-1.74s1.74.79,1.74,1.74c0,.4-.13.79-.37,1.09l-2.84,3.63c-.42.54-.33,1.31.18,1.73l3.39,3.41c.48.49,1.28.49,1.76,0,.48-.48.48-1.28,0-1.76l-2.72-2.72,2.19-2.77c.57-.71.89-1.68.89-2.6,0-2.34-1.9-4.23-4.23-4.23-2.31,0-4.21,1.89-4.21,4.23" fill="#fff"/>
</svg>