<svg width="100" height="60" viewBox="0 0 100 60" fill="none" xmlns="http://www.w3.org/2000/svg">
<g clip-path="url(#clip0_5241_26610)">
<path fill-rule="evenodd" clip-rule="evenodd" d="M59.5987 43.9748C59.9152 43.0274 60.3899 43.0274 61.1811 42.5536C60.8646 43.5011 60.5482 43.8169 59.5987 43.9748ZM90.9299 36.553C90.2969 34.1844 90.7717 32.4473 93.4617 31.8157C93.6199 32.9211 95.0441 34.5002 93.3035 36.0793C92.6705 36.553 92.0376 36.553 90.9299 36.553ZM39.819 33.8685C40.1354 33.3948 41.7178 31.342 42.3508 32.1315C43.142 32.7632 40.7684 33.8685 39.819 33.8685ZM20.6721 36.553C20.3557 35.2897 20.0392 33.5527 21.4633 32.2894C22.4128 31.342 23.0457 31.6578 23.9951 32.1315C22.8875 33.7106 22.7292 32.4473 22.8875 34.9739C22.8875 36.2372 22.8875 36.553 20.6721 36.553ZM34.4389 35.7635C34.9136 33.3948 35.863 33.2369 35.863 30.3945C33.6477 28.8154 33.9641 30.3945 32.3818 28.4996C32.3818 28.3416 32.0653 28.0258 32.0653 28.0258C28.4258 28.0258 30.7994 29.7628 29.6917 31.6578C29.3752 32.4473 28.9005 32.7632 28.2676 33.3948C27.4764 34.1844 27.4764 34.5002 26.0522 34.5002C26.0522 32.9211 27.4764 31.0261 26.0522 29.7628C24.9446 28.4996 19.7227 28.0258 18.1403 32.2894C17.0327 35.6056 16.8744 34.9739 15.4503 35.7635C15.4503 34.5002 16.2415 33.2369 16.7162 32.2894C17.5074 30.5524 17.6656 29.7628 15.4503 29.7628L11.6526 33.8685C10.0702 35.6056 11.3361 36.3951 11.3361 36.3951C11.3361 36.553 11.3361 36.553 11.4943 36.553C11.8108 37.3426 11.4943 37.8163 11.8108 38.9217C14.9756 39.7112 15.4503 38.7638 17.5074 37.5005C18.1403 37.9742 18.2986 38.448 19.0898 38.7638C20.6721 39.7112 22.0963 39.7112 23.6787 38.6059C25.1028 37.3426 23.8369 38.1321 25.894 37.6584C27.3181 37.3426 28.7423 35.9214 29.5335 34.9739L32.54 31.8157C32.54 34.0264 32.2235 33.7106 31.5906 35.2897C30.9576 36.7109 30.4829 37.6584 30.7994 38.448C31.907 40.6587 35.23 38.29 36.496 37.5005C37.1289 37.9742 38.7113 40.0271 41.2431 39.3954C43.9331 38.7638 44.2496 37.8163 45.9902 36.553C44.4079 43.3432 51.5286 35.2897 52.3198 34.6581C52.7945 34.3423 52.478 34.3423 53.111 34.1844C52.1615 36.0793 51.2121 37.8163 52.3198 38.9217C54.0604 40.8166 58.6493 36.553 60.2317 35.1318L60.7064 34.6581C61.8141 33.5527 63.3964 32.2894 64.9788 31.8157C64.9788 33.5527 64.6623 34.6581 63.5547 35.1318C62.1305 35.9214 62.7635 34.816 59.9152 36.2372C59.9152 38.448 60.7064 38.7638 62.2888 38.448C62.2888 39.7112 62.1305 39.3954 60.8646 40.185C59.757 40.8166 58.0163 41.7641 57.5416 42.5536C55.9592 44.9223 57.6999 50.1334 62.9217 44.6065C63.7129 43.659 64.1876 43.0274 64.6623 41.7641C65.1371 40.3429 68.3018 36.7109 69.8842 38.29C70.3589 38.6059 69.8842 38.29 70.3589 38.6059C71.9413 40.0271 72.5743 39.3954 74.4731 38.448C76.0555 39.3954 76.0555 39.8692 78.1126 38.7638L81.2774 36.553V38.6059C84.4421 40.8166 85.8663 37.6584 88.5563 37.5005C89.3475 40.6587 93.9364 39.3954 95.3606 37.1847C96.31 35.6056 96.1517 34.816 97.4177 33.7106C99.9495 31.4999 98.6836 31.4999 98.3671 30.0787C96.4682 30.2366 97.7341 30.8682 96.31 30.5524C95.8353 30.5524 93.6199 27.71 89.9805 30.5524C87.6069 32.4473 89.5057 33.8685 86.4992 35.4476C85.708 35.7635 85.2333 36.0793 84.6004 36.553C85.2333 34.0264 87.1322 31.0261 87.6069 29.1312C88.7145 29.1312 88.8728 29.1312 89.664 28.8154V26.7625H88.7145C89.031 24.7097 89.664 25.6572 89.031 23.2885C87.4486 23.6043 86.1827 24.8676 86.1827 26.7625C85.2333 26.7625 84.2839 26.6046 83.6509 27.0784C82.7015 27.3942 83.018 27.8679 83.1762 28.8154C83.9674 29.2891 83.6509 29.1312 84.9168 29.1312C82.7015 32.4473 83.3344 31.8157 79.8532 34.5002C79.2203 35.1318 78.5873 35.7635 77.7961 36.0793C78.1126 34.816 80.1697 32.4473 77.7961 32.4473C74.9478 32.2894 75.5808 36.553 71.7831 36.553C71.7831 34.3423 72.2578 33.3948 73.6819 32.4473C75.1061 31.4999 76.6884 31.8157 78.9038 31.8157C78.9038 28.9733 78.7455 29.2891 75.4225 29.447C73.8402 29.6049 71.6248 30.5524 70.6754 31.342C69.2513 32.9211 70.0424 33.079 68.4601 34.9739L68.1436 35.2897C66.8777 36.3951 66.7194 36.3951 65.2953 37.1847C65.6118 35.9214 67.9853 35.4476 67.9853 32.4473C67.9853 29.9208 64.9788 27.71 61.4976 31.0261L60.7064 31.9736C59.5987 32.9211 56.1175 35.7635 55.1681 36.0793C55.801 33.7106 58.1746 31.8157 56.9087 29.447C53.7439 29.6049 52.7945 31.8157 50.1044 33.7106C50.4209 32.6052 52.1615 29.6049 50.1044 29.447C48.5221 29.2891 49.3132 30.7103 47.0979 32.6052C45.1991 34.1844 41.2431 38.29 39.819 36.2372C45.5155 35.7635 47.5726 30.0787 43.3002 29.447C37.7619 28.6575 37.2871 34.9739 34.4389 35.7635Z" fill="#666768"/>
<path fill-rule="evenodd" clip-rule="evenodd" d="M6.43067 28.8154C6.27243 31.9736 4.69005 31.4999 2.31648 32.1315C2.15824 33.079 2 33.079 2 34.1844C2.94943 34.5002 2.94943 34.5002 4.0571 34.5002C4.0571 35.6056 3.42414 36.0793 2.79119 37.6584C2.15824 38.7638 2.47471 37.3426 2.31648 38.9217C3.74062 39.3955 3.42414 39.8692 4.84829 39.3955C5.79772 39.0796 5.63948 39.0796 6.74715 36.8689C7.53834 34.816 7.3801 34.1844 10.0701 34.1844C10.3866 32.9211 10.8613 33.079 10.8613 31.1841C10.0701 31.1841 9.75367 31.1841 9.12072 31.0262C9.75367 29.7629 11.0196 26.9205 11.969 26.4467C14.3426 25.3414 23.6786 24.8676 26.8434 25.6572L33.8059 27.0784C33.8059 25.8151 33.3312 25.3414 32.6982 24.7097C29.8499 21.5515 24.7863 22.0252 19.8809 22.0252C16.0832 22.0252 8.32953 24.236 5.63948 26.2888C4.21533 27.3942 0.734095 32.7632 6.43067 28.8154Z" fill="#666768"/>
<path fill-rule="evenodd" clip-rule="evenodd" d="M15.6085 28.0258C15.6085 28.8154 15.7668 28.8154 15.925 29.447C18.4568 29.447 18.2986 29.2891 18.2986 27.0783C18.2986 25.4992 15.6085 25.8151 15.6085 28.0258Z" fill="#666768"/>
</g>
<defs>
<clipPath id="clip0_5241_26610">
<rect width="97" height="25" fill="white" transform="translate(2 22)"/>
</clipPath>
</defs>
</svg>
